<svg xmlns="http://www.w3.org/2000/svg" width="192" height="192" viewBox="0 0 192 192">
  <defs>
    <linearGradient id="bg" x1="0" y1="0" x2="1" y2="1">
      <stop offset="0%" stop-color="#2563eb"/>
      <stop offset="100%" stop-color="#8b5cf6"/>
    </linearGradient>
  </defs>
  <rect width="192" height="192" rx="32" fill="url(#bg)"/>
  <g transform="translate(42, 20)">
    <!-- Scissors blade 1 -->
    <path d="M0 120 Q20 100 40 80 L80 40 Q85 35 82 30 Q78 25 73 28 L33 68 Q13 88 0 120Z" fill="white" opacity="0.95"/>
    <!-- Scissors blade 2 -->
    <path d="M108 120 Q88 100 68 80 L28 40 Q23 35 26 30 Q30 25 35 28 L75 68 Q95 88 108 120Z" fill="white" opacity="0.95"/>
    <!-- Pivot -->
    <circle cx="54" cy="74" r="10" fill="white"/>
    <circle cx="54" cy="74" r="5" fill="url(#bg)"/>
  </g>
  <text x="96" y="155" font-family="Arial, sans-serif" font-size="44" font-weight="bold" text-anchor="middle" fill="white">جاكسي</text>
</svg>
