<svg xmlns="http://www.w3.org/2000/svg" width="512" height="512" viewBox="0 0 512 512">
  <defs>
    <linearGradient id="bg" x1="0" y1="0" x2="1" y2="1">
      <stop offset="0%" stop-color="#2563eb"/>
      <stop offset="100%" stop-color="#8b5cf6"/>
    </linearGradient>
  </defs>
  <rect width="512" height="512" rx="64" fill="url(#bg)"/>
  <g transform="translate(112, 40)">
    <path d="M0 320 Q60 260 120 200 L220 100 Q235 85 228 70 Q220 55 205 62 L105 162 Q45 222 0 320Z" fill="white" opacity="0.95"/>
    <path d="M288 320 Q228 260 168 200 L68 100 Q53 85 60 70 Q68 55 83 62 L183 162 Q243 222 288 320Z" fill="white" opacity="0.95"/>
    <circle cx="144" cy="200" r="28" fill="white"/>
    <circle cx="144" cy="200" r="14" fill="url(#bg)"/>
  </g>
  <text x="256" y="420" font-family="Arial, sans-serif" font-size="110" font-weight="bold" text-anchor="middle" fill="white">جاكسي</text>
</svg>
